<svg width="32" height="32" viewBox="0 0 32 32" fill="none" xmlns="http://www.w3.org/2000/svg">
    <path d="M28.6133 16.5536C27.585 10.213 23.1762 5.55493 19.2503 6.66104C18.4246 6.8947 17.7703 7.43998 15.1375 10.1663C13.7665 11.584 13.3459 11.9267 13.1122 11.8488C10.5573 10.8518 8.95264 12.0981 8.96818 15.0893C8.96818 16.6783 9.04614 17.0989 9.56023 18.7036C9.70045 19.1242 7.92439 20.7755 5.69662 23.1279C3.90505 24.7637 5.79008 25.2623 8.48527 24.3899C13.1278 22.8943 12.4111 22.9566 14.0157 23.8602C16.6486 25.3402 20.076 25.8854 21.6339 25.0754C21.9455 24.9195 22.1169 24.5924 22.0857 24.2341C22.0857 24.2185 21.9455 22.6918 21.9455 22.7073C24.0798 21.8505 26.6503 20.9781 27.8655 20.1056C29.0806 19.2177 28.9092 18.3608 28.6133 16.5536ZM8.46973 22.941C8.29833 22.941 10.3392 20.6976 10.4794 20.5419C10.5105 20.7288 10.9468 21.4299 11.5699 21.8505C11.5855 21.9284 8.75017 22.941 8.46973 22.941ZM24.2511 19.5292C23.3787 19.7318 20.6368 20.8223 19.671 21.3675C18.9699 21.757 18.9387 21.8038 19.0322 22.3023C19.3749 24.2029 19.4684 24.0939 17.8171 23.6732C14.0781 22.7074 9.74717 15.3696 11.4609 12.8926C11.9438 12.1916 12.6137 13.0795 12.6605 14.4973C12.7072 15.9928 14.0313 18.4543 14.9661 19.0619C15.5114 19.4202 15.7917 18.984 15.6515 18.7036C13.8444 15.3697 14.1404 14.4817 14.265 13.9832C14.265 13.9832 18.2377 9.96379 18.5649 9.60545C19.7644 8.32801 20.8238 8.26569 21.9922 9.38738C24.1421 11.4749 25.7935 14.7932 26.2141 17.8311C26.3076 18.6413 25.6533 19.2177 24.2511 19.5292Z" fill="#006B99" />
    <path d="M23.3603 17.1614C21.5688 18.1117 18.0011 11.5062 19.6525 10.3066C20.4003 9.76136 19.2474 9.09145 18.6242 9.79255C17.5805 10.9765 18.5932 17.4574 22.8929 18.2052C23.6719 18.3454 24.3106 18.2052 24.373 17.6755C24.4353 17.2237 23.8433 16.8965 23.3603 17.1614Z" fill="#006B99" />
  </svg>