<svg width="22" height="21" viewBox="0 0 22 21" fill="none" xmlns="http://www.w3.org/2000/svg">
  <path d="M15.855 1.28761C13.6872 0.196812 13.632 0.611067 15.6756 2.59937C22.0686 8.79917 20.3426 18.1333 12.6792 18.8927C6.72801 19.4865 2.48894 15.8136 2.59942 10.2904C2.68228 5.8995 5.56809 1.30145 10.3181 0.749132C11.2708 0.638645 11.2984 0.611067 10.8704 0.376303C10.2076 0.00347403 8.27448 0.0725361 7.10084 0.486791C5.56815 1.03911 4.00783 2.17133 2.7927 3.63501C-0.258828 7.28027 0.0725881 13.0105 2.47515 16.4073C5.47151 20.6463 15.5099 21.3782 19.0308 17.6086C23.4494 12.8863 21.7648 4.27012 15.855 1.28761Z" fill="#006B99" />
</svg>