<svg width="35" height="46" viewBox="0 0 35 46" fill="none" xmlns="http://www.w3.org/2000/svg">
  <path fill-rule="evenodd" clip-rule="evenodd" d="M20.2919 1.31957C15.5527 3.72762 4.87009 15.6142 1.38609 22.2748C-0.714578 26.2968 -0.458329 26.5273 6.33029 26.9116L11.1721 27.1934C2.38519 42.5639 3.28179 40.9244 3.20489 41.0781C1.28359 44.3828 3.89659 46.5859 6.66329 43.9985C6.68889 43.9729 30.4364 25.5282 34.689 19.4056C35.1757 18.7139 35.0477 17.9198 33.9717 17.1256C32.2041 15.8191 29.8217 15.4092 21.1373 14.692C19.7795 14.5895 19.1648 14.4358 19.2672 14.2309C19.9077 12.6682 22.3669 6.11 23.5453 3.54829C24.9287 0.55103 24.8006 -0.98602 20.2919 1.31957ZM18.5242 7.0579C18.2937 7.5959 15.4501 14.4102 15.322 14.692C14.656 16.0241 15.0915 16.7158 16.7566 16.8951C22.29 17.4843 24.4931 17.6892 26.7219 17.7917C30.4108 17.971 30.4365 17.8173 26.5426 21.7368C22.3926 25.9381 11.7869 35.6728 11.5563 35.4422C11.3514 35.2373 14.7585 28.7304 15.6808 27.5264C17.3459 25.3489 16.8335 25.0415 11.5307 25.0415C9.14819 25.0415 7.66239 24.9902 6.53519 24.9134C5.48489 24.8365 4.84439 23.7094 5.35679 22.7615C7.27809 19.2519 10.7109 14.8713 16.4237 8.595C19.0367 5.777 19.0878 5.7258 18.5242 7.0579Z" fill="#000001" />
</svg>
